<svg viewBox="0 0 1320 752" xmlns="http://www.w3.org/2000/svg" role="img" aria-label="Notice Tracker information architecture, three regimes resolving to one Case ID">
  <style>
    svg { font-family: 'Inter', -apple-system, system-ui, sans-serif; }
    .eyebrow{ font-size: 10px; font-weight: 600; letter-spacing: 0.14em; }
    .micro  { font-size: 9.5px; font-weight: 600; letter-spacing: 0.14em; }
    .ntitle { font-size: 14px; font-weight: 600; }
    .ntitle-lg { font-size: 16px; font-weight: 600; }
    .nsub   { font-size: 11px; font-weight: 400; }
    .chip-t { font-size: 13px; font-weight: 600; }
    .chip-s { font-size: 11px; font-weight: 400; }
    .link       { fill: none; stroke: #E5E2DC; stroke-width: 1.3; }
    .link-spine { fill: none; stroke: rgba(217,119,6,0.50); stroke-width: 1.3; }
    .tie        { stroke: #E5E2DC; stroke-width: 1; stroke-dasharray: 2 5; }
  </style>
  <rect x="0" y="0" width="1320" height="752" fill="#FAFAF9"/>
  <text x="152" y="44" text-anchor="middle" class="eyebrow" fill="#9C9C97">ROOT</text>
<text x="400" y="44" text-anchor="middle" class="eyebrow" fill="#9C9C97">BY REGIME</text>
<text x="660" y="44" text-anchor="middle" class="eyebrow" fill="#9C9C97">CASE LISTS</text>
<text x="920" y="44" text-anchor="middle" class="eyebrow" fill="#9C9C97">SPINE</text>
<text x="1185" y="44" text-anchor="middle" class="eyebrow" fill="#9C9C97">CASE SURFACES</text>
<path d="M 227.0 300.0 C 274.0 300.0, 274.0 128.0, 321.0 128.0" class="link"/>
<path d="M 227.0 300.0 C 274.0 300.0, 274.0 300.0, 321.0 300.0" class="link"/>
<path d="M 227.0 300.0 C 274.0 300.0, 274.0 472.0, 321.0 472.0" class="link"/>
<path d="M 479.0 128.0 C 530.0 128.0, 530.0 128.0, 581.0 128.0" class="link"/>
<path d="M 479.0 300.0 C 530.0 300.0, 530.0 300.0, 581.0 300.0" class="link"/>
<path d="M 479.0 472.0 C 530.0 472.0, 530.0 472.0, 581.0 472.0" class="link"/>
<path d="M 739.0 128.0 C 786.5 128.0, 786.5 300.0, 834.0 300.0" class="link-spine"/>
<path d="M 739.0 300.0 C 786.5 300.0, 786.5 300.0, 834.0 300.0" class="link-spine"/>
<path d="M 739.0 472.0 C 786.5 472.0, 786.5 300.0, 834.0 300.0" class="link-spine"/>
<path d="M 1006.0 300.0 C 1056.0 300.0, 1056.0 232.0, 1106.0 232.0" class="link"/>
<path d="M 1006.0 300.0 C 1056.0 300.0, 1056.0 368.0, 1106.0 368.0" class="link"/>
<rect x="77.0" y="269.0" width="150" height="62" rx="9" fill="#FAFAF9" stroke="#1F1F1E" stroke-width="1.4"/>
<text x="152" y="297.0" text-anchor="middle" class="ntitle" fill="#1F1F1E">Notice Tracker</text>
<text x="152" y="315.0" text-anchor="middle" class="nsub" fill="#6B6B68">Product root</text>
<rect x="321.0" y="97.0" width="158" height="62" rx="9" fill="#FFFFFF" stroke="#E5E2DC" stroke-width="1"/>
<text x="400" y="125.0" text-anchor="middle" class="ntitle" fill="#1F1F1E">GST</text>
<text x="400" y="143.0" text-anchor="middle" class="nsub" fill="#6B6B68">Dashboard</text>
<rect x="321.0" y="269.0" width="158" height="62" rx="9" fill="#FFFFFF" stroke="#E5E2DC" stroke-width="1"/>
<text x="400" y="297.0" text-anchor="middle" class="ntitle" fill="#1F1F1E">ITR</text>
<text x="400" y="315.0" text-anchor="middle" class="nsub" fill="#6B6B68">Dashboard</text>
<rect x="321.0" y="441.0" width="158" height="62" rx="9" fill="#FFFFFF" stroke="#E5E2DC" stroke-width="1"/>
<text x="400" y="469.0" text-anchor="middle" class="ntitle" fill="#1F1F1E">TDS</text>
<text x="400" y="487.0" text-anchor="middle" class="nsub" fill="#6B6B68">TRACES, TAN login</text>
<rect x="581.0" y="97.0" width="158" height="62" rx="9" fill="#FFFFFF" stroke="#E5E2DC" stroke-width="1"/>
<text x="660" y="125.0" text-anchor="middle" class="ntitle" fill="#1F1F1E">GST cases</text>
<text x="660" y="143.0" text-anchor="middle" class="nsub" fill="#6B6B68">Overdue, critical, other</text>
<rect x="581.0" y="269.0" width="158" height="62" rx="9" fill="#FFFFFF" stroke="#E5E2DC" stroke-width="1"/>
<text x="660" y="297.0" text-anchor="middle" class="ntitle" fill="#1F1F1E">ITR cases</text>
<text x="660" y="315.0" text-anchor="middle" class="nsub" fill="#6B6B68">Overdue, critical, other</text>
<rect x="581.0" y="441.0" width="158" height="62" rx="9" fill="#FFFFFF" stroke="#E5E2DC" stroke-width="1"/>
<text x="660" y="469.0" text-anchor="middle" class="ntitle" fill="#1F1F1E">TDS cases</text>
<text x="660" y="487.0" text-anchor="middle" class="nsub" fill="#6B6B68">Overdue, critical, other</text>
<rect x="834.0" y="257.0" width="172" height="86" rx="10" fill="rgba(217,119,6,0.07)" stroke="#D97706" stroke-width="1.5"/>
<text x="920" y="279.0" text-anchor="middle" class="micro" fill="#D97706">CANONICAL KEY</text>
<text x="920" y="302.0" text-anchor="middle" class="ntitle-lg" fill="#1F1F1E">Case</text>
<text x="920" y="323.0" text-anchor="middle" class="nsub" fill="#6B6B68">Keyed by Case ID</text>
<rect x="1106.0" y="201.0" width="158" height="62" rx="9" fill="#FFFFFF" stroke="#E5E2DC" stroke-width="1"/>
<text x="1185" y="229.0" text-anchor="middle" class="ntitle" fill="#1F1F1E">Notice detail</text>
<text x="1185" y="247.0" text-anchor="middle" class="nsub" fill="#6B6B68">Type, demand, due date</text>
<rect x="1106.0" y="337.0" width="158" height="62" rx="9" fill="#FFFFFF" stroke="#E5E2DC" stroke-width="1"/>
<text x="1185" y="365.0" text-anchor="middle" class="ntitle" fill="#1F1F1E">Legal checks</text>
<text x="1185" y="383.0" text-anchor="middle" class="nsub" fill="#6B6B68">DIN, time bar, section</text>
<line x1="400" y1="520" x2="400" y2="596" class="tie"/>
<line x1="660" y1="520" x2="660" y2="596" class="tie"/>
<line x1="920" y1="520" x2="920" y2="596" class="tie"/>
<line x1="1185" y1="520" x2="1185" y2="596" class="tie"/>
<rect x="75" y="596" width="1189" height="112" rx="12" fill="none" stroke="#E5E2DC" stroke-width="1"/>
<text x="95" y="626" class="micro" fill="#9C9C97">SPANS EVERY LEVEL</text>
<rect x="98.0" y="649.0" width="7" height="7" rx="1.5" fill="#1F1F1E"/>
<text x="117.0" y="649.0" class="chip-t" fill="#1F1F1E">Clear AI</text>
<text x="117.0" y="668.0" class="chip-s" fill="#6B6B68">Dashboard, case, All Chats</text>
<rect x="492.5" y="649.0" width="7" height="7" rx="1.5" fill="#1F1F1E"/>
<text x="511.5" y="649.0" class="chip-t" fill="#1F1F1E">Audit trail</text>
<text x="511.5" y="668.0" class="chip-s" fill="#6B6B68">Every action logged</text>
<rect x="887.0" y="649.0" width="7" height="7" rx="1.5" fill="#1F1F1E"/>
<text x="906.0" y="649.0" class="chip-t" fill="#1F1F1E">Portal syncs</text>
<text x="906.0" y="668.0" class="chip-s" fill="#6B6B68">GST, Income Tax, TRACES</text>
</svg>