<svg width="12" height="12" viewBox="0 0 12 12" fill="none" xmlns="http://www.w3.org/2000/svg">
<path d="M5.12802 1.31551L1.51597 3.66334C1.344 3.77512 1.25802 3.83101 1.22824 3.90188C1.20222 3.96382 1.20222 4.03362 1.22824 4.09556C1.25802 4.16643 1.344 4.22232 1.51597 4.3341L5.12802 6.68193C5.44364 6.88709 5.60145 6.98966 5.77149 7.02957C5.92179 7.06485 6.07821 7.06485 6.22851 7.02957C6.39855 6.98966 6.55636 6.88708 6.87198 6.68193L10.484 4.3341C10.656 4.22232 10.742 4.16643 10.7718 4.09556C10.7978 4.03362 10.7978 3.96382 10.7718 3.90188C10.742 3.83101 10.656 3.77512 10.484 3.66334L6.87198 1.31551C6.55636 1.11035 6.39855 1.00778 6.22851 0.967865C6.07821 0.932587 5.92179 0.932587 5.77149 0.967865C5.60145 1.00778 5.44364 1.11035 5.12802 1.31551L1.36401 3.76211C1.23101 3.84857 1.16451 3.89179 1.11632 3.94945C1.07367 4.00049 1.04164 4.05953 1.02209 4.1231C1 4.19492 1 4.27424 1 4.43287V8.09872C1 8.9388 1 9.35884 1.16349 9.67971C1.3073 9.96195 1.53677 10.1914 1.81901 10.3352C2.13988 10.4987 2.55992 10.4987 3.4 10.4987H8.6C9.44008 10.4987 9.86012 10.4987 10.181 10.3352C10.4632 10.1914 10.6927 9.96195 10.8365 9.67971C11 9.35884 11 8.9388 11 8.09872V4.43287C11 4.27424 11 4.19492 10.9779 4.1231C10.9584 4.05953 10.9263 4.00049 10.8837 3.94945C10.8355 3.89179 10.769 3.84857 10.636 3.76211L6.87198 1.31551" stroke="#17A5B1" stroke-linecap="round" stroke-linejoin="round"/>
</svg>
